<?xml version="1.0" encoding="utf-8"?>
<!-- Generator: Adobe Illustrator 23.0.1, SVG Export Plug-In . SVG Version: 6.00 Build 0)  -->
<svg version="1.1" id="Capa_1" xmlns="http://www.w3.org/2000/svg" xmlns:xlink="http://www.w3.org/1999/xlink" x="0px" y="0px"
	 viewBox="0 0 385 385" style="enable-background:new 0 0 385 385;" xml:space="preserve">
<style type="text/css">
	.st0{fill:#FFFFFF;}
</style>
<g>
	<g id="Menu_1_">
		<path class="st0" d="M384,108.3c0-6.6-5.4-12-12-12H11.1c-6.6,0-12,5.4-12,12c0,6.6,5.4,12,12,12H372
			C378.6,120.3,384,114.9,384,108.3z"/>
		<path class="st0" d="M-1,192.5c0,6.6,5.4,12,12,12H372c6.6,0,12-5.4,12-12s-5.4-12-12-12H11.1C4.4,180.5-1,185.8-1,192.5z"/>
		<path class="st0" d="M-1,276.7c0,6.6,5.4,12,12,12h240.6c6.6,0,12-5.4,12-12c0-6.6-5.4-12-12-12H11.1C4.4,264.7-1,270.1-1,276.7z"
			/>
	</g>
</g>
</svg>
